{"glyphs":{"0":{"ha":913,"x_min":0,"x_max":776,"o":"m 656 899 q 776 510 776 757 q 656 119 776 263 q 389 -11 544 -11 q 122 119 233 -11 q 0 515 0 265 q 122 899 0 756 q 389 1031 231 1031 q 656 899 544 1031 m 625 335 q 620 576 635 479 q 578 733 606 672 q 516 824 550 793 q 453 867 482 854 q 389 882 422 882 q 236 778 296 882 q 174 515 174 674 q 174 486 174 500 q 175 458 174 472 q 160 543 164 503 q 154 615 156 583 q 154 685 153 651 q 157 450 143 544 q 197 295 171 356 q 255 202 222 235 q 317 156 288 169 q 369 139 342 143 q 379 138 374 138 l 382 138 l 389 138 q 542 242 481 138 q 604 510 604 347 q 603 537 604 524 q 603 564 603 550 q 617 477 614 518 q 624 404 621 436 q 625 335 625 368 z "},"1":{"ha":507,"x_min":0,"x_max":306,"o":"m 140 1018 l 306 1018 l 306 0 l 128 0 l 128 796 l 233 817 l 128 817 l 128 817 l 0 817 l 140 1018 l 140 1018 z "},"2":{"ha":910,"x_min":0,"x_max":750,"o":"m 750 154 l 750 0 l 0 0 l 386 431 q 437 489 414 463 q 479 539 460 515 q 512 581 499 563 q 536 615 525 600 q 575 721 575 676 q 524 833 575 789 q 396 879 471 879 q 214 706 236 879 l 213 700 l 36 700 l 38 707 q 390 1028 76 1028 q 644 940 542 1028 q 747 721 747 850 q 700 558 747 636 q 629 460 674 514 q 577 399 606 432 q 513 328 549 365 l 444 254 l 283 78 l 386 154 l 750 154 z "},"3":{"ha":846,"x_min":0,"x_max":706,"o":"m 576 539 q 706 300 706 464 q 606 76 706 161 q 349 -11 506 -11 q 51 124 149 -11 q 1 281 13 182 l 0 288 l 171 288 l 172 282 q 231 175 185 213 q 354 138 278 138 q 388 140 372 138 q 418 147 403 143 q 481 178 456 158 q 524 223 507 199 q 550 273 540 247 q 564 319 560 299 q 532 276 549 293 q 530 273 531 274 q 528 269 529 272 l 528 272 q 521 264 524 267 q 515 258 518 261 l 510 253 q 529 315 529 286 q 520 368 529 344 q 499 408 511 392 q 481 429 486 424 q 469 438 475 433 q 457 446 464 442 q 318 469 413 469 l 313 469 l 313 610 l 318 610 q 344 610 332 610 q 367 611 356 611 q 439 624 410 611 q 446 626 443 625 q 451 628 449 626 q 487 652 472 638 q 510 683 501 667 q 522 715 518 699 q 528 746 526 732 q 512 724 521 735 q 492 706 503 714 q 509 749 506 729 q 508 787 513 769 q 496 817 504 804 q 479 839 488 831 l 472 846 q 357 885 429 885 q 256 856 290 885 q 204 754 224 828 l 204 750 l 28 750 l 29 757 q 135 967 54 899 q 360 1033 215 1033 q 597 954 506 1033 q 689 751 689 876 q 576 539 689 615 z "},"4":{"ha":979,"x_min":1,"x_max":836,"o":"m 721 322 l 836 322 l 836 172 l 721 172 l 721 0 l 543 0 l 543 172 l 1 172 l 721 1058 l 721 338 l 642 322 l 721 322 l 721 322 m 543 322 l 543 633 l 328 344 l 217 322 l 311 322 l 310 322 l 543 322 z "},"5":{"ha":915,"x_min":3,"x_max":767,"o":"m 597 653 q 699 566 661 619 q 752 450 738 513 q 758 321 767 388 q 719 193 749 254 q 663 113 699 149 q 585 52 628 78 q 493 11 542 26 q 396 -6 444 -4 q 228 15 300 -10 q 109 72 157 39 q 35 138 61 106 q 3 179 8 169 l 128 281 q 138 270 133 276 q 146 258 142 264 q 190 213 167 235 q 240 175 213 192 q 316 147 278 151 q 399 153 354 143 q 464 176 431 158 q 540 239 513 201 q 582 314 568 276 q 599 381 596 351 q 603 422 603 411 q 585 370 596 393 q 564 332 575 347 q 538 300 551 314 q 553 379 561 344 q 529 435 544 414 q 478 478 508 461 q 412 504 447 494 q 338 518 376 514 q 263 522 300 522 q 183 519 218 522 q 118 513 149 515 l 81 508 l 160 1017 l 721 1017 l 721 864 l 308 864 l 228 864 l 306 849 l 279 704 l 285 704 q 314 707 300 707 q 343 707 328 707 q 481 693 417 707 q 597 653 544 679 z "},"6":{"ha":858,"x_min":-1,"x_max":724,"o":"m 107 85 q -1 311 -1 181 q 104 560 -1 426 l 482 1032 l 678 1032 l 357 629 q 369 630 364 629 q 378 631 374 631 q 391 632 385 632 q 401 632 397 632 q 629 539 535 632 q 724 319 724 449 q 618 86 724 183 q 364 -11 513 -11 q 107 85 217 -11 m 372 489 q 310 486 339 493 q 257 465 281 479 q 214 430 233 450 q 179 389 194 410 q 121 272 143 339 q 144 314 132 296 q 171 347 157 332 q 169 330 169 339 q 168 313 168 321 q 224 186 168 238 q 363 135 279 135 l 376 135 q 449 153 419 138 q 499 186 475 165 q 506 194 503 190 q 514 203 510 199 q 552 253 536 226 q 579 301 568 279 q 600 353 592 326 q 553 283 578 308 q 555 297 554 290 q 556 310 556 303 q 499 438 556 385 q 372 489 444 488 z "},"7":{"ha":961,"x_min":0,"x_max":868,"o":"m 124 1017 l 868 1017 l 196 -1 l 0 -1 l 554 838 l 635 960 l 538 863 l 124 863 l 124 1017 l 124 1017 z "},"8":{"ha":849,"x_min":1,"x_max":706,"o":"m 667 439 q 706 296 706 375 q 608 75 706 160 q 360 -11 511 -11 q 104 75 206 -11 q 1 294 1 163 q 144 529 1 460 q 29 740 29 608 q 124 947 29 864 q 358 1029 218 1029 q 592 947 497 1029 q 685 739 685 863 q 569 531 685 613 q 667 439 632 496 m 288 867 q 229 825 253 851 q 190 771 206 799 q 160 704 172 739 q 201 764 178 738 q 199 740 199 750 q 244 638 199 679 q 357 596 290 596 q 376 597 367 596 q 393 599 385 597 q 450 624 425 604 q 459 630 454 626 q 468 638 464 633 q 469 639 468 638 q 506 681 490 658 q 531 724 521 704 q 550 771 542 747 q 533 740 543 754 q 513 715 524 726 q 515 739 515 729 q 468 839 515 796 q 357 882 421 882 q 288 867 321 882 m 478 185 q 510 221 497 201 q 529 254 521 238 q 543 285 538 271 q 554 314 549 300 q 542 290 549 300 q 528 269 535 279 q 529 283 529 276 q 529 297 529 290 q 478 411 529 364 q 354 457 428 457 q 301 450 329 457 q 231 413 260 440 q 183 356 203 386 q 149 279 161 319 q 182 331 163 307 q 178 299 178 314 q 229 185 178 233 q 354 138 281 138 q 367 138 361 138 q 379 139 372 138 q 426 149 406 140 q 465 174 447 158 q 478 185 469 176 z "},"9":{"ha":861,"x_min":4,"x_max":729,"o":"m 621 936 q 729 710 729 840 q 624 461 729 594 l 246 -11 l 50 -11 l 371 392 q 359 391 364 392 q 350 390 354 390 q 337 389 343 389 q 326 389 331 389 q 99 482 193 389 q 4 701 4 572 q 110 935 4 838 q 364 1032 215 1032 q 621 936 510 1032 m 356 532 q 418 535 389 528 q 471 556 447 542 q 514 591 494 571 q 549 632 533 611 q 607 749 585 682 q 583 707 596 725 q 557 674 571 689 q 559 691 558 682 q 560 708 560 700 q 504 835 560 783 q 365 886 449 886 l 351 886 q 279 868 308 883 q 229 835 251 856 q 222 826 225 831 q 214 818 218 822 q 175 768 190 794 q 149 719 160 742 q 128 668 136 694 q 175 738 150 713 q 173 724 174 731 q 172 711 172 718 q 229 583 172 636 q 356 532 283 533 z "},"\u0000":{"ha":694,"x_min":0,"x_max":0,"o":""},"\r":{"ha":694,"x_min":0,"x_max":0,"o":""}," ":{"ha":421,"x_min":0,"x_max":0,"o":""},"C":{"ha":1022,"x_min":0,"x_max":863,"o":"m 190 606 q 190 603 190 604 q 189 601 189 603 q 180 543 182 574 q 184 478 178 513 q 207 407 190 443 q 253 333 224 371 l 251 333 q 174 425 208 374 q 129 543 140 476 q 158 414 133 478 q 225 301 179 360 q 354 197 271 242 q 565 140 447 140 q 708 165 650 140 q 742 181 725 172 q 778 200 760 189 q 815 224 796 211 q 853 253 833 238 l 863 261 l 863 64 l 860 63 q 564 -11 719 -11 q 164 139 328 -11 q 0 504 0 290 q 138 846 0 696 q 576 1031 307 1031 q 860 957 724 1031 l 863 954 l 863 761 l 853 769 q 565 876 713 876 q 290 768 400 876 q 190 607 215 700 l 190 606 l 190 606 z "},"A":{"ha":1235,"x_min":0,"x_max":1081,"o":"m 1081 0 l 886 0 l 715 349 q 763 360 739 356 q 808 363 788 364 q 779 367 794 365 q 747 369 765 368 q 707 367 729 369 l 706 365 q 685 363 699 365 q 456 289 556 339 q 289 188 357 239 l 192 0 l 0 0 l 550 1050 l 864 429 q 956 407 915 419 q 1024 383 996 394 q 1081 356 1057 369 q 983 372 1031 367 q 890 378 935 376 l 1081 0 m 546 690 l 404 415 q 362 390 379 403 q 333 365 344 376 q 313 339 319 351 q 349 366 328 354 q 389 386 369 378 l 390 386 q 537 426 467 414 q 669 442 607 439 l 671 442 l 547 693 l 546 690 z "},"B":{"ha":800,"x_min":0,"x_max":663,"o":"m 639 407 q 663 293 663 353 q 569 89 663 172 q 444 18 515 39 q 257 -1 367 -1 l 0 -1 l 0 1018 l 171 1018 q 347 1003 279 1018 q 461 949 415 986 q 536 850 508 910 q 564 731 564 790 q 496 564 564 633 q 455 565 474 567 q 421 563 436 564 q 389 558 404 560 q 492 545 447 564 q 567 499 536 526 q 615 445 597 472 q 639 407 633 418 m 178 586 l 224 586 q 354 621 314 586 q 394 728 394 657 q 353 831 394 797 q 229 867 310 867 l 178 867 l 178 586 m 433 193 q 486 299 486 233 q 436 404 486 363 q 256 446 386 446 l 178 446 l 178 154 l 274 154 q 433 193 385 154 z "},"D":{"ha":990,"x_min":0,"x_max":858,"o":"m 688 886 q 858 508 858 743 q 679 129 858 272 q 588 68 635 93 q 492 28 540 43 q 233 0 397 0 l 0 0 l 0 1018 l 236 1018 q 385 1010 319 1018 q 499 988 450 1003 q 688 886 600 958 m 483 199 q 606 283 560 232 q 676 381 651 333 q 717 494 706 436 q 636 365 690 419 q 672 465 664 418 q 676 553 681 511 q 668 601 675 575 q 651 652 661 629 q 629 694 640 675 q 598 736 615 717 q 561 774 581 756 q 246 863 456 863 l 178 863 l 178 154 l 246 154 q 347 160 301 154 q 428 176 392 165 q 483 199 458 185 z "},"E":{"ha":800,"x_min":6,"x_max":622,"o":"m 183 864 l 183 650 l 103 633 l 183 633 l 183 633 l 610 633 l 610 479 l 183 479 l 183 171 l 103 154 l 183 154 l 183 154 l 622 154 l 622 0 l 6 0 l 6 1018 l 622 1018 l 622 864 l 183 864 z "},"F":{"ha":708,"x_min":0,"x_max":558,"o":"m 558 861 l 178 861 l 178 649 l 97 632 l 178 632 l 178 632 l 544 632 l 544 478 l 178 478 l 178 0 l 0 0 l 0 1017 l 558 1017 l 558 861 l 558 861 z "},"G":{"ha":1200,"x_min":0,"x_max":1043,"o":"m 1043 535 l 1043 496 q 1014 297 1043 382 q 921 146 988 217 q 543 -11 772 -11 q 160 140 317 -11 q 0 507 0 293 q 163 876 0 726 q 557 1029 324 1029 q 790 981 681 1029 q 994 825 896 932 l 999 821 l 875 711 l 871 715 q 560 876 743 876 q 283 769 397 876 q 172 521 179 671 q 190 431 174 478 q 244 333 206 383 q 167 424 201 372 q 122 543 133 476 q 157 401 128 469 q 189 341 169 372 q 236 281 208 310 q 301 225 264 251 q 389 178 339 199 q 549 140 465 140 q 756 213 663 140 q 857 382 844 285 l 594 382 l 594 535 l 1043 535 z "},"H":{"ha":1007,"x_min":0,"x_max":814,"o":"m 636 1018 l 814 1018 l 814 0 l 636 0 l 636 469 l 178 469 l 178 0 l 0 0 l 0 1018 l 178 1018 l 178 640 l 94 624 l 178 624 l 178 624 l 476 624 l 476 624 l 718 624 l 636 640 l 636 1018 l 636 1018 z "},"I":{"ha":381,"x_min":0,"x_max":178,"o":"m 178 1018 l 178 0 l 0 0 l 0 1018 l 178 1018 l 178 1018 z "},"J":{"ha":644,"x_min":-46,"x_max":460,"o":"m 156 -18 q -46 35 50 -18 l 42 175 q 103 145 75 154 q 156 136 131 136 q 251 183 226 136 q 281 361 281 233 l 281 1018 l 460 1018 l 460 361 q 456 258 460 303 q 442 185 451 214 q 417 124 432 153 q 381 72 403 96 q 156 -18 294 -18 z "},"K":{"ha":892,"x_min":0,"x_max":746,"o":"m 308 540 l 746 0 l 533 0 l 531 1 l 183 444 l 160 419 l 160 0 l 0 0 l 0 1018 l 160 1018 l 160 625 l 531 1018 l 744 1018 l 307 567 l 226 488 l 308 540 l 308 540 z "},"L":{"ha":674,"x_min":0,"x_max":499,"o":"m 178 154 l 499 154 l 499 0 l 0 0 l 0 1018 l 178 1018 l 178 172 l 93 154 l 178 154 l 178 154 l 178 154 z "},"M":{"ha":1436,"x_min":0,"x_max":1250,"o":"m 1250 0 l 1063 0 l 964 510 l 1003 635 l 956 549 l 626 -12 l 331 508 l 263 635 l 300 514 l 189 0 l 0 0 l 1 7 l 242 1026 l 631 297 l 1032 1026 l 1250 0 l 1250 0 z "},"N":{"ha":1057,"x_min":0,"x_max":885,"o":"m 885 -12 l 168 654 l 168 654 l 100 724 l 168 619 l 168 0 l 0 0 l 0 1029 l 717 349 l 717 349 l 790 276 l 717 385 l 717 1018 l 885 1018 l 885 -12 l 885 -12 z "},"O":{"ha":1229,"x_min":0,"x_max":1096,"o":"m 935 876 q 1096 507 1096 722 q 933 140 1096 290 q 543 -11 771 -11 q 178 124 340 -11 q 0 514 0 272 q 163 878 0 725 q 550 1029 325 1029 q 935 876 774 1029 m 889 347 q 930 445 917 397 q 950 529 943 493 q 922 464 938 489 q 910 446 915 453 q 901 433 906 439 q 893 424 896 428 q 915 481 910 449 q 918 545 919 514 q 911 603 917 576 q 903 642 906 629 q 817 771 872 717 q 549 876 707 876 q 421 857 483 876 q 298 790 347 833 q 217 695 249 746 q 168 593 185 644 q 144 503 151 542 q 160 541 151 525 q 175 568 168 557 q 190 590 185 585 l 197 597 q 179 558 185 579 q 172 513 174 536 q 173 468 171 490 q 179 428 175 446 q 283 244 200 324 q 544 140 399 140 q 815 247 704 140 q 889 347 863 294 z "},"P":{"ha":743,"x_min":0,"x_max":626,"o":"m 531 932 q 626 714 626 844 q 524 490 626 574 q 247 408 421 408 l 178 408 l 178 0 l 0 0 l 0 1018 l 193 1018 q 315 1014 263 1018 q 403 1000 367 1010 q 531 932 476 981 m 392 594 q 441 640 422 614 q 471 689 460 665 q 489 746 483 717 q 472 713 482 728 q 451 686 463 697 q 453 701 453 693 q 454 717 454 708 q 226 865 454 865 l 178 865 l 178 561 l 233 561 q 392 594 338 561 z "},"Q":{"ha":1281,"x_min":1,"x_max":1140,"o":"m 1140 -24 l 925 -24 l 836 65 q 549 -12 706 -12 q 178 122 340 -12 q 1 503 1 271 q 168 882 1 728 q 550 1029 331 1029 q 908 900 747 1029 q 1099 496 1099 746 q 953 154 1099 304 l 1140 -24 m 543 139 q 701 172 631 139 q 715 178 707 175 l 672 219 l 653 238 l 467 410 l 688 410 l 801 301 l 806 297 l 839 268 q 888 335 868 300 q 921 406 907 371 q 942 472 935 440 q 954 528 950 503 q 941 491 947 507 q 928 463 935 475 q 925 457 925 460 l 925 458 q 906 431 914 442 q 899 422 901 425 q 918 469 913 443 q 924 521 924 494 q 920 572 924 547 q 913 615 917 597 q 819 769 888 701 q 549 876 708 876 q 279 769 383 876 q 249 738 263 754 q 225 703 236 721 q 173 597 190 650 q 149 503 156 543 q 164 540 156 524 q 179 567 172 556 q 194 590 188 581 q 201 597 199 596 q 178 528 182 567 q 179 453 175 489 q 196 368 185 411 q 282 243 222 299 q 543 139 397 139 z "},"R":{"ha":875,"x_min":0,"x_max":728,"o":"m 728 0 l 510 0 l 197 411 l 178 411 l 178 0 l 0 0 l 0 1018 l 200 1018 q 517 942 419 1018 q 625 717 625 856 q 557 529 625 607 q 388 431 492 454 l 728 0 m 224 556 q 389 592 332 556 q 442 635 421 610 q 474 686 463 661 q 492 746 488 714 q 472 709 483 725 q 449 679 461 693 q 451 697 450 688 q 451 715 451 706 q 231 864 451 864 l 178 864 l 178 556 l 224 556 z "},"S":{"ha":843,"x_min":8,"x_max":721,"o":"m 658 489 q 721 310 721 415 q 619 78 721 171 q 364 -15 517 -15 q 125 64 218 -15 q 10 285 33 142 l 8 290 l 188 326 l 189 319 q 226 201 200 232 q 369 138 278 138 q 493 183 443 138 q 542 300 542 229 q 542 313 542 307 q 540 326 542 319 q 561 283 557 299 q 564 267 564 274 q 562 324 571 297 q 536 371 553 350 q 500 406 519 392 q 468 428 481 419 l 460 432 q 390 465 433 447 l 286 506 q 58 765 58 593 q 154 960 58 882 q 392 1038 251 1038 q 692 865 585 1038 l 696 861 l 550 782 l 547 788 q 478 863 510 846 q 390 882 447 882 q 281 849 324 882 q 239 764 239 815 l 239 753 q 220 787 225 771 q 214 814 215 803 q 215 839 213 828 q 210 779 203 806 q 231 733 217 753 q 263 701 246 714 q 292 682 281 688 q 353 651 317 665 l 461 611 q 658 489 594 561 z "},"k":{"ha":786,"x_min":0,"x_max":661,"o":"m 336 372 l 661 0 l 431 0 l 197 274 l 178 257 l 178 0 l 0 0 l 0 1150 l 178 1150 l 178 465 l 399 669 l 639 669 l 324 386 l 324 386 l 253 324 l 336 372 l 336 372 z "},"T":{"ha":835,"x_min":0,"x_max":681,"o":"m 681 864 l 429 864 l 429 863 l 331 863 l 429 843 l 429 0 l 251 0 l 251 864 l 0 864 l 0 1018 l 681 1018 l 681 864 l 681 864 z "},"U":{"ha":985,"x_min":0,"x_max":817,"o":"m 817 1018 l 817 368 q 708 103 817 207 q 408 -12 586 -12 q 108 103 231 -12 q 0 368 0 207 l 0 1018 l 176 1018 l 176 493 l 178 493 l 176 492 l 176 489 l 176 463 q 179 424 176 446 q 188 378 182 403 q 203 331 193 354 q 229 289 214 307 q 215 297 222 292 q 183 332 200 310 q 169 353 176 342 q 156 381 163 365 q 194 265 168 310 q 248 196 219 221 q 302 161 276 171 q 342 149 328 151 q 408 140 372 140 q 475 149 443 140 q 515 161 489 151 q 568 196 540 171 q 569 197 569 196 q 572 200 572 197 q 581 208 576 201 l 582 208 l 583 210 l 588 214 q 631 281 611 240 q 661 381 650 321 q 633 332 649 351 q 601 297 617 310 q 588 289 594 292 q 616 335 606 310 q 632 388 626 361 q 639 437 638 414 q 640 475 640 460 l 640 478 l 640 493 l 640 1018 l 817 1018 z "},"V":{"ha":1108,"x_min":0,"x_max":975,"o":"m 782 1018 l 975 1018 l 482 -11 l 475 1 l 0 1018 l 192 1018 l 193 1014 l 468 415 l 439 275 l 492 392 l 782 1018 l 782 1018 z "},"W":{"ha":1514,"x_min":6,"x_max":1394,"o":"m 1222 1017 l 1394 1017 l 943 -11 l 693 647 l 433 -11 l 6 1017 l 178 1017 l 418 421 l 400 307 l 436 399 l 696 1049 l 936 424 l 918 307 l 1007 518 l 1222 1017 l 1222 1017 z "},"X":{"ha":1014,"x_min":0,"x_max":886,"o":"m 551 532 l 886 0 l 686 0 l 461 357 l 493 461 l 393 294 l 203 0 l 0 0 l 347 532 l 43 1018 l 246 1018 l 435 710 l 401 601 l 457 694 l 667 1018 l 871 1018 l 551 532 l 551 532 z "},"Y":{"ha":1022,"x_min":6,"x_max":908,"o":"m 703 1018 l 908 1018 l 546 439 l 546 0 l 367 0 l 367 439 l 6 1018 l 211 1018 l 213 1015 l 442 646 l 410 543 l 511 710 l 703 1018 l 703 1018 z "},"Z":{"ha":939,"x_min":-39,"x_max":792,"o":"m 200 69 l 289 154 l 775 154 l 775 0 l -39 0 l 478 832 l 553 950 l 461 864 l 54 864 l 54 1018 l 792 1018 l 318 257 l 200 69 l 200 69 z "},"[":{"ha":407,"x_min":0,"x_max":300,"o":"m 0 1097 l 300 1097 l 300 953 l 168 953 l 168 -82 l 300 -82 l 300 -226 l 0 -226 l 0 1097 z "},"a":{"ha":933,"x_min":0,"x_max":739,"o":"m 739 688 l 739 0 l 560 0 l 560 61 q 347 -18 460 -18 q 97 82 194 -18 q 0 336 0 186 q 97 588 0 486 q 343 688 194 688 l 356 688 q 402 681 369 686 q 475 658 435 676 q 549 611 514 640 q 573 586 561 600 q 594 556 585 572 q 586 574 592 564 q 576 593 582 582 q 560 618 569 604 l 560 688 l 739 688 m 497 167 q 563 229 528 186 q 621 342 599 272 q 597 297 611 314 q 569 268 583 279 q 536 250 554 256 q 556 285 550 265 q 564 325 561 306 l 564 338 q 553 417 564 382 q 515 482 543 453 q 374 538 461 538 q 236 481 292 538 q 182 336 182 422 q 235 188 182 244 q 372 129 289 129 l 376 129 q 426 136 401 131 q 472 153 450 142 q 485 159 479 156 q 497 167 492 163 z "},"b":{"ha":851,"x_min":0,"x_max":739,"o":"m 640 586 q 739 336 739 485 q 640 82 739 183 q 393 -18 542 -18 q 178 61 274 -18 l 178 0 l 0 0 l 0 1151 l 178 1151 l 178 621 q 149 575 157 593 q 140 556 143 564 q 158 581 149 569 q 178 603 168 592 l 178 601 q 296 671 232 650 q 340 682 319 679 q 372 686 360 685 q 383 688 378 688 q 396 688 389 688 q 640 586 543 688 m 501 186 q 557 331 557 244 q 503 479 557 422 q 367 538 449 538 q 224 482 278 538 q 174 385 185 443 q 172 360 172 375 q 173 326 171 344 q 183 290 175 308 q 206 254 190 271 q 197 258 203 254 q 175 276 189 263 l 168 283 q 144 311 157 294 q 121 351 132 328 q 115 363 118 354 q 142 297 126 329 q 176 238 156 269 q 228 181 197 207 q 314 135 263 146 q 341 130 328 132 q 369 129 354 128 q 501 186 449 132 z "},"c":{"ha":768,"x_min":0,"x_max":603,"o":"m 183 354 q 182 351 183 354 q 187 303 182 332 q 210 251 192 275 q 189 269 200 258 q 169 294 179 279 q 149 331 158 308 q 170 279 156 311 q 210 215 185 247 q 269 157 235 183 q 353 121 304 131 q 397 117 374 117 q 526 159 469 117 q 603 267 582 201 l 603 32 l 599 31 q 394 -18 500 -18 q 114 82 226 -18 q 0 332 0 182 q 115 585 0 482 q 396 688 229 688 q 599 640 501 688 l 603 639 l 603 396 q 526 505 582 463 q 397 547 469 547 q 302 525 346 547 q 229 467 258 503 q 183 354 188 417 z "},"d":{"ha":918,"x_min":0,"x_max":739,"o":"m 739 1151 l 739 0 l 560 0 l 560 61 q 346 -18 465 -18 q 99 82 196 -18 q 0 336 0 183 q 97 586 0 485 q 343 688 196 688 q 355 688 350 688 q 367 686 360 688 q 399 682 379 685 q 442 671 418 679 q 560 601 507 650 l 560 603 q 597 556 582 581 q 589 575 594 564 q 560 621 581 593 l 560 1151 l 739 1151 m 511 182 q 562 238 540 207 q 597 297 583 269 q 624 363 613 329 q 621 357 622 360 q 618 351 619 354 q 594 311 607 328 q 569 283 581 294 q 567 280 568 281 q 564 276 565 279 q 551 265 557 269 q 542 258 546 261 q 533 254 536 254 q 556 290 549 271 q 565 326 563 308 q 567 360 568 344 q 565 385 567 375 q 515 482 553 443 q 372 538 460 538 q 236 479 290 538 q 182 331 182 422 q 238 186 182 242 q 368 129 290 132 q 397 130 383 128 q 424 135 411 132 q 511 182 476 146 z "},"e":{"ha":856,"x_min":0,"x_max":706,"o":"m 706 181 l 703 175 q 669 128 686 150 q 633 88 651 106 q 596 53 615 68 q 556 26 576 39 q 465 -8 517 6 q 360 -18 418 -18 q 99 78 196 -18 q 0 333 0 174 q 96 590 0 492 q 351 688 193 688 q 604 593 513 688 q 697 335 697 500 l 697 292 l 168 292 q 178 269 172 281 q 194 246 185 257 q 189 249 192 246 q 183 253 186 250 q 175 258 179 256 q 169 263 172 261 q 96 342 132 296 q 138 275 114 308 q 186 217 157 247 q 251 163 215 186 q 336 131 290 136 q 403 132 369 124 q 497 175 456 142 q 557 257 538 208 l 706 181 m 219 469 q 199 429 207 453 l 513 429 q 354 538 478 538 q 326 536 339 538 q 300 531 313 535 q 254 507 276 522 q 219 469 235 493 z "},"f":{"ha":647,"x_min":0,"x_max":485,"o":"m 321 986 q 306 879 306 958 l 306 781 l 229 765 l 485 765 l 485 613 l 306 613 l 306 0 l 126 0 l 126 613 l 0 613 l 0 765 l 126 765 l 126 917 q 175 1096 126 1043 q 368 1169 242 1169 q 481 1146 413 1169 l 485 1144 l 485 974 l 458 988 q 374 1011 404 1011 q 321 986 333 1011 z "},"g":{"ha":922,"x_min":0,"x_max":738,"o":"m 738 689 l 738 22 q 733 -61 738 -24 q 730 -94 732 -79 q 725 -124 728 -110 q 654 -254 706 -200 q 383 -358 556 -358 q 143 -286 236 -358 q 32 -81 47 -212 l 31 -74 l 210 -74 l 210 -79 q 240 -151 221 -128 q 385 -210 290 -210 q 558 -11 558 -210 l 558 65 q 339 -18 463 -18 q 96 81 190 -18 q 0 331 0 181 q 89 579 0 478 q 342 688 185 688 q 356 688 349 688 q 369 686 363 688 q 433 674 392 683 q 518 636 475 664 q 558 604 539 624 l 558 606 q 579 583 569 594 q 599 556 589 571 q 589 576 594 565 q 576 598 583 586 q 558 624 569 610 l 558 689 l 738 689 m 372 129 q 481 158 435 126 q 557 229 526 189 q 603 308 588 269 q 624 358 619 346 q 591 304 608 325 q 560 271 574 283 q 558 270 558 271 q 557 269 558 269 q 548 263 551 265 q 542 257 544 260 q 536 254 538 254 q 560 303 556 278 q 565 351 565 329 q 511 482 560 432 q 372 539 457 539 q 229 478 282 539 q 182 333 182 419 q 229 190 182 246 q 372 129 282 129 z "},"h":{"ha":789,"x_min":0,"x_max":628,"o":"m 564 614 q 628 408 628 550 l 628 0 l 450 0 l 450 394 q 421 506 450 472 q 328 538 392 538 q 213 492 246 538 q 179 324 179 443 l 179 0 l 0 0 l 0 1151 l 179 1151 l 179 646 q 151 613 163 629 q 132 583 139 596 q 118 556 124 568 q 179 622 144 596 q 215 646 197 636 q 267 668 242 660 q 313 681 292 676 q 347 686 333 685 q 365 688 361 688 l 367 688 q 564 614 490 688 z "},"i":{"ha":349,"x_min":-25,"x_max":203,"o":"m 6 856 q -18 892 -11 871 q -25 936 -25 914 q 8 1010 -25 978 q 36 1028 24 1022 q 66 1022 47 1026 q 105 1008 85 1017 q 144 983 125 999 q 175 944 163 968 q 160 985 169 965 q 137 1017 151 1000 q 99 1040 122 1033 q 169 1010 142 1036 q 203 935 203 978 q 169 861 203 890 q 89 831 138 831 q 44 835 65 831 q 6 856 22 840 m 0 669 l 178 669 l 178 0 l 0 0 l 0 669 z "},"j":{"ha":408,"x_min":-90,"x_max":251,"o":"m 50 669 l 228 669 l 228 -50 l 228 -51 q 206 -195 226 -139 q 147 -287 186 -251 q 49 -340 107 -324 q -72 -357 -10 -357 l -90 -218 q -28 -207 -56 -215 q 15 -181 -1 -199 q 40 -128 32 -162 q 50 -28 49 -94 l 50 669 m 53 853 q 30 891 36 868 q 24 936 24 914 q 57 1010 24 978 q 85 1028 72 1022 q 115 1022 96 1026 q 153 1008 133 1017 q 192 983 174 999 q 224 944 211 968 q 208 985 218 965 q 185 1017 200 1000 q 147 1040 171 1033 q 218 1010 190 1036 q 251 935 251 978 q 218 861 251 890 q 139 831 188 831 q 93 834 115 831 q 53 853 71 838 z "},"l":{"ha":383,"x_min":0,"x_max":179,"o":"m 179 1151 l 179 -1 l 0 -1 l 0 1151 l 179 1151 l 179 1151 z "},"m":{"ha":1189,"x_min":0,"x_max":993,"o":"m 744 688 q 993 413 993 688 l 993 0 l 814 0 l 814 371 q 790 501 814 463 q 711 539 765 539 q 618 494 647 539 q 588 346 588 450 l 588 0 l 408 0 l 408 369 q 306 539 408 539 q 210 493 239 539 q 179 346 179 449 l 179 0 l 0 0 l 0 689 l 179 689 l 179 642 q 147 603 160 622 q 126 568 135 583 q 111 533 117 550 q 145 582 128 561 q 179 618 163 603 q 225 656 204 640 q 246 667 236 663 q 265 676 256 672 q 328 688 296 686 l 331 688 l 329 688 l 343 688 q 526 607 456 688 q 508 579 515 592 q 496 556 500 567 q 488 533 490 543 q 512 567 500 551 q 535 596 524 582 l 535 594 q 539 600 536 597 q 551 613 546 607 q 564 624 557 618 q 631 666 594 651 q 708 686 667 681 l 711 686 l 710 686 q 728 688 719 688 q 744 688 736 688 z "},"n":{"ha":781,"x_min":0,"x_max":629,"o":"m 568 614 q 629 410 629 550 l 629 0 l 450 0 l 450 374 q 422 504 450 468 q 324 540 394 540 q 213 493 243 540 q 179 324 179 444 l 179 0 l 0 0 l 0 689 l 179 689 l 179 643 q 147 604 160 624 q 126 569 135 585 q 111 533 117 551 q 149 585 131 563 q 186 624 167 607 q 368 689 268 689 q 568 614 494 689 z "},"o":{"ha":899,"x_min":0,"x_max":775,"o":"m 664 585 q 775 333 775 482 q 663 81 775 182 q 385 -19 550 -19 q 111 83 221 -19 q 0 339 0 183 q 113 585 0 485 q 388 688 226 688 q 664 585 549 688 m 528 175 q 578 228 557 199 q 614 285 600 258 q 635 333 628 313 q 646 360 643 354 q 617 309 632 329 q 588 276 601 289 q 557 253 572 261 q 589 319 585 285 q 590 375 593 353 q 587 389 588 382 q 583 403 586 396 q 565 446 576 426 q 538 482 553 465 q 394 538 482 536 q 328 532 358 540 q 274 508 299 524 q 228 472 249 493 q 192 428 207 450 q 131 304 154 374 q 188 388 154 353 l 188 386 q 203 401 196 397 q 210 406 207 404 q 190 367 196 386 q 182 329 183 347 q 238 185 185 236 q 388 128 294 128 l 392 128 q 447 133 422 126 q 494 153 472 140 q 513 163 504 157 q 528 175 521 168 z "},"p":{"ha":883,"x_min":0,"x_max":740,"o":"m 642 586 q 740 331 740 483 q 642 81 740 182 q 397 -19 546 -19 q 179 64 275 -19 l 179 -358 l 0 -358 l 0 689 l 179 689 l 179 632 q 151 596 163 613 q 133 564 140 579 q 121 532 125 547 q 179 607 150 578 q 393 688 272 688 q 642 586 544 688 m 482 167 q 538 221 514 190 q 576 281 561 251 q 600 332 592 310 q 611 360 608 354 q 580 307 596 328 q 549 274 564 286 q 538 265 542 268 q 529 258 533 261 q 521 253 524 254 q 551 309 544 281 q 556 361 558 338 q 504 481 550 431 q 367 538 450 538 q 224 482 278 538 q 169 333 169 425 q 224 185 169 243 q 350 129 275 133 q 394 131 376 126 q 482 167 443 136 z "},"q":{"ha":910,"x_min":0,"x_max":739,"o":"m 739 688 l 739 -358 l 561 -358 l 561 64 q 343 -19 465 -19 q 97 79 196 -19 q 0 331 0 181 q 99 585 0 483 q 346 688 194 688 q 561 606 464 688 q 590 572 575 590 q 619 532 604 554 q 607 563 615 547 q 588 594 600 576 q 561 631 576 611 l 561 688 l 739 688 m 515 185 q 571 333 571 244 q 515 482 571 424 q 374 538 460 538 q 236 479 290 538 q 183 360 192 431 q 188 309 182 338 q 218 253 194 281 q 210 257 214 254 q 190 274 204 260 q 160 307 176 286 q 129 360 144 328 q 140 331 131 353 q 164 280 149 308 q 203 220 179 251 q 258 167 226 189 q 344 131 297 136 q 390 129 364 126 q 515 185 468 133 z "},"r":{"ha":610,"x_min":0,"x_max":482,"o":"m 482 644 l 400 494 l 394 499 q 307 528 349 528 q 178 347 178 528 l 178 0 l 0 0 l 0 688 l 178 688 l 178 646 q 144 606 158 626 q 122 569 131 586 q 107 532 113 550 q 144 583 126 561 q 181 621 163 604 q 201 638 192 631 q 219 653 210 646 q 222 654 221 654 q 235 663 229 658 q 247 669 240 667 q 249 671 247 669 q 338 688 286 688 q 476 647 404 688 l 482 644 z "},"s":{"ha":653,"x_min":-10,"x_max":533,"o":"m 483 340 q 533 214 533 292 q 451 44 533 111 q 263 -19 375 -19 q -10 156 72 -19 l 147 224 l 151 218 q 196 158 179 172 q 265 133 225 133 q 342 178 332 133 q 342 155 343 165 q 338 138 340 144 q 331 122 335 129 q 349 156 344 140 q 353 186 354 172 q 345 211 351 200 q 333 231 339 222 q 282 271 315 253 q 256 283 268 278 q 231 294 243 288 q 204 306 217 300 q 178 317 192 311 q 113 351 140 335 q 71 386 86 368 q 31 500 31 431 q 99 650 31 590 q 268 710 167 710 q 485 572 414 710 l 488 567 l 333 492 l 331 497 q 254 557 299 557 q 224 547 238 557 q 215 533 217 540 q 215 519 214 526 q 221 504 217 513 q 212 513 215 508 q 206 521 208 517 q 194 546 196 535 q 193 563 193 553 q 194 569 193 567 q 195 517 183 539 q 222 482 207 496 q 228 477 225 479 q 236 472 232 475 q 238 471 236 471 q 240 469 239 469 q 299 440 263 454 q 483 340 435 386 z "},"t":{"ha":633,"x_min":0,"x_max":482,"o":"m 481 765 l 482 765 l 482 611 l 304 611 l 304 0 l 126 0 l 126 611 l 0 611 l 0 765 l 126 765 l 126 1056 l 304 1056 l 304 781 l 225 765 l 481 765 l 481 765 l 481 765 z "},"u":{"ha":794,"x_min":0,"x_max":626,"o":"m 626 681 l 626 292 q 606 153 626 211 q 576 101 594 125 q 532 57 557 78 q 313 -12 446 -12 q 96 57 181 -12 q 19 153 42 100 q 0 292 0 200 l 0 681 l 179 681 l 179 303 q 182 276 179 292 q 191 244 185 261 q 208 211 197 228 q 235 182 218 194 q 247 175 243 176 q 222 185 235 178 q 198 202 211 192 q 169 232 185 213 q 145 272 154 251 q 131 306 136 292 q 128 314 129 310 q 125 324 126 318 q 148 238 131 271 q 187 184 165 204 q 230 155 208 164 q 267 143 251 146 q 288 139 276 140 q 313 138 300 138 q 372 147 349 138 q 407 162 388 151 q 444 191 426 172 q 477 239 463 210 q 497 310 492 268 q 462 238 482 265 q 422 197 442 211 q 378 175 400 181 q 394 185 389 179 q 422 216 411 199 q 438 250 432 233 q 445 282 443 267 q 447 307 447 297 l 447 681 l 626 681 z "},"v":{"ha":892,"x_min":3,"x_max":767,"o":"m 565 681 l 767 681 l 383 -12 l 3 681 l 204 681 l 369 349 l 347 242 l 385 318 l 385 318 l 565 681 l 565 681 z "},"w":{"ha":1235,"x_min":0,"x_max":1124,"o":"m 932 681 l 1124 681 l 753 -12 l 563 333 l 369 -12 l 0 681 l 193 681 l 356 340 l 335 242 l 368 313 l 368 313 l 563 700 l 744 339 l 725 242 l 757 313 l 757 313 l 932 681 l 932 681 z "},"x":{"ha":996,"x_min":4,"x_max":869,"o":"m 869 0 l 651 0 l 458 229 l 503 317 l 421 222 l 228 0 l 4 0 l 333 369 l 68 682 l 285 682 l 429 508 l 389 425 l 443 492 l 443 492 l 604 682 l 828 682 l 553 369 l 869 0 l 869 0 z "},"y":{"ha":936,"x_min":1,"x_max":838,"o":"m 632 683 l 838 683 l 251 -361 l 46 -361 l 332 132 l 1 683 l 213 683 l 417 328 l 393 235 l 501 439 l 632 683 l 632 683 z "},"z":{"ha":936,"x_min":-36,"x_max":796,"o":"m 271 100 l 363 158 l 749 158 l 749 0 l -36 0 l 394 481 l 493 589 l 392 525 l 71 525 l 71 683 l 796 683 l 424 268 l 424 268 l 271 100 l 271 100 z "},"_":{"ha":858,"x_min":0,"x_max":775,"o":"m 0 -157 l 0 -18 l 775 -18 l 775 -157 l 0 -157 l 0 -157 z "},"-":{"ha":590,"x_min":0,"x_max":374,"o":"m 0 413 l 374 413 l 374 278 l 0 278 l 0 413 z "},"=":{"ha":586,"x_min":0,"x_max":521,"o":"m 0 610 l 0 693 l 521 693 l 521 610 l 0 610 m 0 467 l 0 550 l 521 550 l 521 467 l 0 467 z "},"+":{"ha":751,"x_min":0,"x_max":682,"o":"m 406 847 l 406 597 l 682 597 l 682 478 l 406 478 l 406 228 l 278 228 l 278 478 l 0 478 l 0 597 l 278 597 l 278 847 l 406 847 l 406 847 z "},"*":{"ha":494,"x_min":1,"x_max":444,"o":"m 407 936 l 444 832 l 306 800 l 396 697 l 300 633 l 222 744 l 146 633 l 49 697 l 140 799 l 1 832 l 38 936 l 171 889 l 164 1021 l 282 1021 l 274 889 l 407 936 l 407 936 z "},";":{"ha":400,"x_min":8,"x_max":299,"o":"m 200 639 q 269 613 242 639 q 299 549 299 588 q 269 485 299 511 q 200 458 239 458 q 131 485 160 458 q 101 550 101 511 q 131 613 101 588 q 200 639 158 639 m 143 200 l 264 160 l 101 -122 l 8 -89 l 143 200 z "},":":{"ha":296,"x_min":0,"x_max":196,"o":"m 99 639 q 168 613 140 639 q 196 549 196 588 q 168 485 196 513 q 99 458 138 458 q 28 485 58 458 q 0 550 0 513 q 29 613 0 588 q 99 639 57 639 m 99 182 q 168 156 140 182 q 196 92 196 128 q 168 28 196 53 q 99 1 140 1 q 28 28 56 1 q 0 92 0 53 q 29 156 0 128 q 99 182 57 182 z "},"‘":{"ha":297,"x_min":0,"x_max":256,"o":"m 256 760 l 163 726 l 0 1008 l 121 1050 l 256 760 z "},"’":{"ha":308,"x_min":0,"x_max":256,"o":"m 135 1050 l 256 1008 l 93 726 l 0 760 l 135 1050 z "},"“":{"ha":528,"x_min":0,"x_max":478,"o":"m 256 760 l 163 726 l 0 1008 l 121 1050 l 256 760 m 343 1050 l 478 760 l 385 726 l 221 1008 l 343 1050 z "},"”":{"ha":538,"x_min":0,"x_max":478,"o":"m 222 760 l 357 1050 l 478 1008 l 315 726 l 222 760 m 135 1050 l 257 1008 l 93 726 l 0 760 l 135 1050 z "},"–":{"ha":471,"x_min":0,"x_max":374,"o":"m 0 413 l 374 413 l 374 278 l 0 278 l 0 413 z "},",":{"ha":389,"x_min":0,"x_max":257,"o":"m 0 -89 l 135 200 l 257 160 l 93 -122 l 0 -89 l 0 -89 z "},".":{"ha":336,"x_min":1,"x_max":197,"o":"m 100 182 q 168 156 142 182 q 197 92 197 128 q 168 28 197 53 q 100 1 142 1 q 29 28 57 1 q 1 92 1 53 q 31 156 1 128 q 100 182 58 182 z "},"/":{"ha":694,"x_min":0,"x_max":588,"o":"m 1 13 l 479 1031 l 588 986 l 586 982 l 108 -36 l 0 8 l 1 13 l 1 13 z "},"\\":{"ha":653,"x_min":0,"x_max":589,"o":"m 110 1031 l 111 1026 l 589 8 l 481 -36 l 479 -32 l 0 986 l 110 1031 l 110 1031 z "},"@":{"ha":938,"x_min":0,"x_max":865,"o":"m 746 863 q 865 615 865 764 q 800 419 865 501 q 646 336 735 336 q 550 392 576 336 q 404 333 485 333 q 253 393 315 333 q 193 546 193 456 q 260 710 193 644 q 426 775 328 775 q 494 765 465 775 q 531 747 513 758 q 567 719 550 736 q 569 718 568 719 q 597 682 585 703 q 592 696 596 689 q 571 729 585 708 l 576 767 l 668 767 l 633 500 q 631 487 632 493 q 631 474 631 481 q 629 461 629 467 q 629 449 629 456 q 639 422 629 426 q 657 417 649 417 q 739 475 701 417 q 775 610 775 535 q 685 806 775 731 q 453 883 592 883 q 204 792 304 883 q 104 563 104 697 q 113 488 104 525 q 140 415 121 451 q 242 303 175 349 q 464 244 329 244 q 725 303 589 244 l 738 310 l 769 229 l 758 224 q 464 161 618 161 q 179 238 293 161 q 47 378 93 292 q 0 561 0 467 q 131 846 0 731 q 451 963 260 963 q 746 863 625 963 m 469 443 q 517 476 497 457 q 550 511 538 494 q 572 551 565 531 q 531 504 551 519 q 547 571 547 533 q 514 643 547 615 q 433 674 481 674 q 349 636 379 674 q 314 542 314 600 q 342 460 314 492 q 410 428 367 428 q 469 443 442 428 z "},"?":{"ha":576,"x_min":0,"x_max":525,"o":"m 150 186 q 222 160 194 186 q 251 93 251 131 q 222 28 251 54 q 151 1 194 1 q 81 28 107 1 q 50 94 50 54 q 81 160 50 131 q 150 186 108 186 m 450 951 q 525 782 525 885 q 521 732 525 758 q 506 683 517 706 q 472 635 493 656 q 427 597 451 614 q 377 566 403 581 q 326 536 351 551 q 302 524 317 531 q 273 508 288 517 q 247 490 258 500 q 233 467 236 479 l 233 457 l 233 247 l 65 247 l 65 458 q 66 477 65 468 q 68 496 67 486 q 88 549 71 526 q 131 588 104 572 l 210 638 q 251 665 229 651 q 293 693 272 678 q 359 752 340 719 q 381 813 378 785 q 372 879 385 846 q 369 839 374 857 q 357 806 364 821 q 333 850 353 833 q 263 874 308 874 q 192 851 218 874 q 165 786 165 828 q 168 765 165 778 q 174 735 171 751 l 176 728 l 4 728 l 1 761 q 0 774 0 768 q 0 785 0 779 q 75 953 0 886 q 261 1019 147 1019 q 450 951 376 1019 z "},"!":{"ha":251,"x_min":0,"x_max":201,"o":"m 101 186 q 171 160 143 186 q 201 93 201 131 q 171 28 201 54 q 101 1 144 1 q 29 28 57 1 q 0 94 0 54 q 29 160 0 131 q 101 186 57 186 m 18 1019 l 183 1019 l 183 244 l 18 244 l 18 1019 z "},"]":{"ha":424,"x_min":0,"x_max":300,"o":"m 300 -226 l 0 -226 l 0 -82 l 132 -82 l 132 953 l 0 953 l 0 1097 l 300 1097 l 300 -226 z "},"<":{"ha":719,"x_min":0,"x_max":639,"o":"m 0 479 l 0 599 l 639 886 l 639 742 l 172 538 l 639 335 l 639 192 l 0 479 l 0 479 z "},">":{"ha":715,"x_min":0,"x_max":639,"o":"m 639 479 l 0 192 l 0 335 l 467 538 l 0 742 l 0 886 l 639 599 l 639 479 z "},"^":{"ha":493,"x_min":0,"x_max":442,"o":"m 158 957 l 283 957 l 442 682 l 336 682 l 221 881 l 106 682 l 0 682 l 158 957 l 158 957 z "},"&":{"ha":1054,"x_min":0,"x_max":986,"o":"m 986 0 l 765 0 l 660 119 q 350 -19 510 -19 q 101 67 203 -19 q 0 282 0 154 q 160 536 0 435 l 231 581 q 235 583 233 583 l 239 588 q 135 794 135 692 q 208 964 135 897 q 401 1028 282 1028 q 590 965 517 1028 q 667 806 667 903 q 625 685 667 739 q 486 561 583 631 l 672 354 l 674 356 q 704 386 689 371 q 733 417 719 401 q 761 448 747 432 q 788 479 775 464 l 792 483 l 908 375 l 906 371 q 882 342 894 357 q 853 310 869 326 q 819 274 838 293 q 781 235 801 256 l 986 0 m 321 860 q 288 817 304 844 q 276 747 272 789 q 278 744 278 746 q 276 747 278 747 q 281 769 276 754 q 301 806 285 783 q 338 728 303 767 l 378 682 q 382 676 381 679 l 392 682 q 416 700 404 692 q 438 717 428 708 q 461 735 446 722 q 491 766 476 749 q 515 804 506 783 q 522 847 525 825 q 519 835 522 842 q 513 820 517 828 q 499 801 508 813 l 499 808 q 472 868 499 846 q 400 892 444 892 q 329 868 360 892 q 324 864 326 865 q 321 860 322 863 m 513 151 q 488 147 501 149 q 458 145 475 146 q 422 147 442 144 q 553 238 485 175 l 346 469 l 342 467 q 206 365 243 406 q 171 286 171 329 q 208 193 171 235 q 210 190 208 192 l 217 183 q 219 180 218 181 q 224 176 221 179 q 299 135 257 144 q 389 122 336 122 q 513 151 442 122 z "},"\"":{"ha":569,"x_min":0,"x_max":478,"o":"m 357 1050 l 478 1008 l 315 726 l 222 760 l 357 1050 m 257 1008 l 93 726 l 0 760 l 135 1050 l 257 1008 z "},"#":{"ha":928,"x_min":0,"x_max":838,"o":"m 719 997 l 683 725 l 838 725 l 838 600 l 668 600 l 644 428 l 799 428 l 799 303 l 628 303 l 586 -4 l 451 13 l 490 303 l 297 303 l 256 -4 l 118 13 l 158 306 l 0 306 l 0 428 l 176 428 l 200 600 l 40 600 l 40 725 l 217 725 l 256 1013 l 390 997 l 354 725 l 546 725 l 585 1013 l 719 997 m 529 600 l 338 600 l 314 428 l 507 428 l 529 600 z "},"$":{"ha":646,"x_min":4,"x_max":594,"o":"m 543 519 q 594 372 594 463 q 510 179 594 254 q 379 111 451 128 l 379 0 l 265 0 l 265 104 q 101 168 169 110 q 4 351 22 233 l 4 356 l 153 386 l 154 381 q 185 282 163 311 q 304 229 226 229 q 406 268 367 229 q 446 364 446 304 q 444 385 446 378 q 456 365 451 374 q 463 350 460 357 q 464 336 465 343 q 462 384 469 363 q 441 422 454 406 q 412 451 428 439 q 385 469 396 463 q 379 472 379 472 q 321 500 351 489 l 233 535 q 44 750 44 608 q 125 910 44 846 q 265 971 181 958 l 265 1074 l 379 1074 l 379 969 q 571 832 497 949 l 574 828 l 453 763 l 450 767 q 393 831 419 817 q 321 846 368 846 q 231 818 264 846 q 194 749 194 790 q 196 739 194 742 q 180 767 185 754 q 174 789 175 779 q 175 810 172 800 q 171 760 165 782 q 189 723 176 739 q 216 696 201 707 q 239 681 231 685 q 289 656 260 665 l 379 621 q 543 519 490 581 z "},"%":{"ha":1021,"x_min":0,"x_max":969,"o":"m 757 483 q 907 426 843 483 q 969 292 969 369 q 906 156 969 211 q 754 100 843 100 q 606 157 669 100 q 544 294 544 214 q 607 426 544 369 q 757 483 672 483 m 831 224 q 861 292 861 250 q 831 360 861 333 q 757 389 801 389 q 682 360 713 389 q 651 292 651 332 q 682 224 651 251 q 757 194 713 194 q 831 224 801 194 m 833 974 l 222 -1 l 136 46 l 139 51 l 747 1019 l 833 974 m 363 590 q 211 535 301 535 q 61 592 125 535 q 0 728 0 649 q 64 861 0 806 q 213 917 125 917 q 363 860 301 917 q 425 725 425 806 q 363 590 425 646 m 138 793 q 107 726 107 765 q 138 657 107 688 q 213 629 169 629 q 286 657 256 629 q 318 725 318 686 q 286 793 318 765 q 213 822 257 822 q 138 793 168 822 z "},"(":{"ha":347,"x_min":1,"x_max":242,"o":"m 158 246 q 240 8 182 136 l 242 3 l 121 -39 l 119 -36 q 1 496 1 190 q 31 780 1 647 q 119 1026 60 913 l 121 1031 l 242 988 l 240 982 q 158 744 182 854 q 147 688 151 717 q 140 629 143 660 q 136 565 138 597 q 135 496 135 532 q 136 426 135 460 q 140 361 138 392 q 147 302 143 331 q 158 246 151 274 z "},")":{"ha":321,"x_min":1,"x_max":242,"o":"m 85 246 q 96 302 92 274 q 103 361 100 331 q 107 426 106 392 q 108 496 108 460 q 107 565 108 532 q 103 629 106 597 q 96 688 100 660 q 85 744 92 717 q 3 982 61 854 l 1 988 l 122 1031 l 124 1026 q 213 780 183 913 q 242 496 242 647 q 124 -36 242 190 l 122 -39 l 1 3 l 3 8 q 85 246 61 136 z "},"'":{"ha":306,"x_min":0,"x_max":256,"o":"m 135 1050 l 256 1008 l 93 726 l 0 760 l 135 1050 z "},"{":{"ha":464,"x_min":0,"x_max":375,"o":"m 133 1057 q 276 1107 176 1107 l 375 1106 l 375 968 l 349 968 q 275 949 292 968 q 257 861 257 926 l 257 610 q 253 549 257 576 q 238 499 249 521 q 168 435 218 464 q 257 296 257 381 l 257 13 q 275 -78 257 -56 q 349 -97 292 -97 l 375 -97 l 375 -235 l 329 -235 l 282 -237 q 133 -186 179 -237 q 89 -19 89 -136 l 89 288 q 65 342 89 318 q 4 374 44 365 l 0 375 l 0 504 l 4 506 q 69 540 51 517 q 89 619 89 568 l 89 899 q 133 1057 89 1008 z "},"}":{"ha":440,"x_min":0,"x_max":375,"o":"m 242 1057 q 286 899 286 1008 l 286 619 q 306 540 286 568 q 371 506 324 517 l 375 504 l 375 375 l 371 374 q 310 342 331 365 q 286 288 286 318 l 286 -19 q 242 -186 286 -136 q 93 -237 196 -237 l 46 -235 l 0 -235 l 0 -97 l 26 -97 q 100 -78 83 -97 q 118 13 118 -56 l 118 296 q 207 435 118 381 q 138 499 157 464 q 122 549 126 521 q 118 610 118 576 l 118 861 q 100 949 118 926 q 26 968 83 968 l 0 968 l 0 1106 l 99 1107 q 242 1057 197 1107 z "},"|":{"ha":215,"x_min":0,"x_max":139,"o":"m 0 4 l 0 996 l 139 996 l 139 4 l 0 4 l 0 4 z "},"~":{"ha":607,"x_min":6,"x_max":564,"o":"m 564 479 q 540 440 557 461 q 508 407 529 422 q 467 383 494 394 q 413 375 443 375 q 347 386 385 375 q 314 399 331 393 q 279 414 297 406 l 213 443 q 156 457 181 457 q 122 449 136 457 q 94 431 110 443 q 82 417 88 424 q 71 404 76 411 q 60 390 65 397 q 49 375 56 382 l 6 506 q 17 524 11 515 q 29 543 22 533 q 44 561 36 553 q 61 576 51 569 q 103 600 82 592 q 157 610 124 610 q 222 599 186 610 q 256 585 239 592 q 292 571 274 579 q 325 556 308 564 q 357 542 342 549 q 414 528 389 528 q 447 535 435 528 q 462 544 456 539 q 475 554 468 549 q 488 567 482 561 q 499 581 493 574 q 510 595 504 588 q 521 610 515 603 l 564 479 z "},"`":{"ha":357,"x_min":0,"x_max":256,"o":"m 0 1017 l 93 1050 l 256 768 l 135 726 l 0 1017 z "}}}
